<svg xmlns="http://www.w3.org/2000/svg" viewBox="0 0 991.63 163.03"><defs><style>.cls-1{fill:#3ec5e8;}</style></defs><title>Asset 1</title><g id="Layer_2" data-name="Layer 2"><g id="Layer_1-2" data-name="Layer 1"><path class="cls-1" d="M2.49,99c34.46,4.29,42.45,1.13,77.17,1.69-12.3,11-21.14,26.16-12.14,26.23l67.65.54c-5.49,7.94-10.34,18.27-13.69,24.39l-3.87,5.18c52.49.46,73,.92,125.48,1.37,1.52,1.54,3.13,2.51,4.85,2.49l151.63-1.13,97.54.85c106.82.93,217.43,6.73,323.95-4l90.86-.68c.36,0-.36-5.56-1.95-12.68l18-.06c3.61,0-1.31-19-10.61-31.29h30.54c18,0,61.41-31.94,35.87-31.94H943c-2.52-9.67-9.07-21.79-17.4-26.79,1-1.93,1.87-3.66,2.63-5.06L931,44.39l-45.16-2.17L926.9,40.4c10.85-.48,19.93-23.28,25.68-34.4l4.47-6C664.52.83,404,1.66,111.47,2.49c-11.94,0-21.73,27.89-27.3,37.29Q59,42.87,34,46.61c-7.8,1.17-8.73,9.56-11.52,18.69l-.23.12c-.43.22-1.29.69-2.38,1.29l-4.56-.07C-2.09,66.36-1.89,98.48,2.49,99Z"/></g></g></svg>